<svg width="692" height="346" viewBox="0 0 692 346" fill="none" xmlns="http://www.w3.org/2000/svg">
<path d="M692 173H623.261V207.738H588.892V0L541.05 48.094L540.569 47.9556C488.672 32.4548 428.25 24.22 365.767 24.22C186.497 24.22 46.1333 89.5448 46.1333 173C46.1333 256.455 186.497 321.78 365.767 321.78C394.981 321.78 423.714 319.912 451.415 316.382V346H588.892V276.938H657.631V242.2H692V173ZM365.767 301.02C203.682 301.02 66.7548 242.408 66.7548 173C66.7548 103.592 203.682 44.98 365.767 44.98C422.201 44.98 476.642 51.9692 524.278 64.9788L313.938 276.8H451.415V295.484C423.782 299.152 395.05 301.02 365.767 301.02Z" fill="white"/>
</svg>
