<svg xmlns="http://www.w3.org/2000/svg" viewBox="0 0 32 32" width="32" height="32">
  <path d="M32 16.5H28.5943V18.2068H26.8914V8L24.5211 10.363L24.4972 10.3562C21.9259 9.5946 18.9323 9.19 15.8365 9.19C6.95445 9.19 0 12.3996 0 16.5C0 20.6004 6.95445 23.81 15.8365 23.81C17.284 23.81 18.7075 23.7182 20.08 23.5448V25H26.8914V21.6068H30.2971V19.9H32V16.5ZM15.8365 22.79C7.80587 22.79 1.02171 19.9102 1.02171 16.5C1.02171 13.0898 7.80587 10.21 15.8365 10.21C18.6326 10.21 21.3299 10.5534 23.6901 11.1926L13.2686 21.6H20.08V22.518C18.7109 22.6982 17.2874 22.79 15.8365 22.79Z" fill="#ffffff"/>
</svg>