<svg width="1200" height="630" viewBox="0 0 1200 630" fill="none" xmlns="http://www.w3.org/2000/svg">
  <!-- 背景 -->
  <rect width="1200" height="630" fill="#000000"/>
  
  <!-- 裝飾性幾何圖形 -->
  <circle cx="200" cy="200" r="100" fill="#333333"/>
  <circle cx="1000" cy="430" r="80" fill="#333333"/>
  <rect x="800" y="150" width="200" height="200" rx="20" fill="#333333"/>
  
  <!-- LOGO -->
  <g transform="translate(500, 200) scale(0.8)">
    <path d="M32 16.5H28.5943V18.2068H26.8914V8L24.5211 10.363L24.4972 10.3562C21.9259 9.5946 18.9323 9.19 15.8365 9.19C6.95445 9.19 0 12.3996 0 16.5C0 20.6004 6.95445 23.81 15.8365 23.81C17.284 23.81 18.7075 23.7182 20.08 23.5448V25H26.8914V21.6068H30.2971V19.9H32V16.5ZM15.8365 22.79C7.80587 22.79 1.02171 19.9102 1.02171 16.5C1.02171 13.0898 7.80587 10.21 15.8365 10.21C18.6326 10.21 21.3299 10.5534 23.6901 11.1926L13.2686 21.6H20.08V22.518C18.7109 22.6982 17.2874 22.79 15.8365 22.79Z" fill="white"/>
  </g>
  
  <!-- 主要文字 -->
  <text x="600" y="380" font-family="Arial, sans-serif" font-size="72" font-weight="bold" text-anchor="middle" fill="#ffffff">Sheng-Chi Huang</text>
  <text x="600" y="450" font-family="Arial, sans-serif" font-size="36" font-weight="normal" text-anchor="middle" fill="#cccccc">Web Designer & Creative Developer</text>
  
  <!-- 副標題 -->
  <text x="600" y="520" font-family="Arial, sans-serif" font-size="24" font-weight="normal" text-anchor="middle" fill="#999999">Portfolio</text>
  
  <!-- 裝飾線條 -->
  <line x1="400" y1="580" x2="800" y2="580" stroke="#ffffff" stroke-width="2"/>
</svg> 